<svg xmlns="http://www.w3.org/2000/svg" xmlns:xlink="http://www.w3.org/1999/xlink" width="726.463" height="624.225" viewBox="0 0 726.463 624.225"><defs><clipPath id="a"><rect width="726.463" height="624.225" rx="15" fill="#fff"/></clipPath><clipPath id="b"><rect width="644.827" height="225.784" rx="4" fill="#2f3668"/></clipPath></defs><g clip-path="url(#a)"><rect width="726.463" height="624.225" fill="#fff"/><rect width="726.463" height="202.286" fill="#1d2247"/><g transform="translate(41.335 372.9)"><rect width="149.84" height="79.688" rx="4" transform="translate(0 34.736)" fill="#edeef7"/><rect width="149.84" height="79.688" rx="4" transform="translate(0 127.706)" fill="#edeef7"/><rect width="148.806" height="79.688" rx="4" transform="translate(165.34 34.736)" fill="#edeef7"/><rect width="148.806" height="79.688" rx="4" transform="translate(165.34 127.706)" fill="#edeef7"/><rect width="149.84" height="79.688" rx="4" transform="translate(329.647 34.736)" fill="#edeef7"/><rect width="149.84" height="79.688" rx="4" transform="translate(329.647 127.706)" fill="#edeef7"/><rect width="149.84" height="79.688" rx="4" transform="translate(494.987 34.736)" fill="#edeef7"/><rect width="149.84" height="79.688" rx="4" transform="translate(494.987 127.706)" fill="#edeef7"/><text transform="translate(0 16)" font-size="15" font-family="Poppins-Medium, Poppins" font-weight="500"><tspan x="0" y="0">Recently uploaded</tspan></text></g><g transform="translate(41.335 109.316)"><rect width="644.827" height="225.784" rx="4" fill="#2f3668"/><g transform="translate(48.569 58.234)"><text transform="translate(0 23)" fill="#fff" font-size="22" font-family="Poppins-Medium, Poppins" font-weight="500"><tspan x="0" y="0">Diversity IV</tspan></text><text transform="translate(0 40.866)" fill="#fff" font-size="12" font-family="Poppins-Regular, Poppins" opacity="0.62"><tspan x="0" y="13">lorem ipsu asdf j lasd jb lasutjnse </tspan><tspan x="0" y="31">eeh a b skf e jlasdl e b jaf jisdl b </tspan><tspan x="0" y="49">asf a sfj lsekjfaf</tspan></text></g></g><g transform="translate(41.335 109.316)" clip-path="url(#b)"><g transform="matrix(0.966, -0.259, 0.259, 0.966, 322.246, 9.7)"><path d="M5.05.013l149.968.4a5.059,5.059,0,0,1,5.063,5.017l.186,69.774a5,5,0,0,1-5.036,4.99l-149.968-.4A5.059,5.059,0,0,1,.2,74.778L.013,5A5,5,0,0,1,5.05.013Z" fill="#515997"/><path d="M5.05.013l149.968.4a5.059,5.059,0,0,1,5.063,5.017l.186,69.774a5,5,0,0,1-5.036,4.99l-149.968-.4A5.059,5.059,0,0,1,.2,74.778L.013,5A5,5,0,0,1,5.05.013Z" transform="translate(174.508 0.496)" fill="#515997"/><path d="M5.05.013l149.968.4a5.059,5.059,0,0,1,5.063,5.017l.186,69.774a5,5,0,0,1-5.036,4.99l-149.968-.4A5.059,5.059,0,0,1,.2,74.778L.013,5A5,5,0,0,1,5.05.013Z" transform="translate(0.279 97.131)" fill="#515997"/><path d="M5.05.013l149.968.4a5.059,5.059,0,0,1,5.063,5.017l.186,69.774a5,5,0,0,1-5.036,4.99l-149.968-.4A5.059,5.059,0,0,1,.2,74.778L.013,5A5,5,0,0,1,5.05.013Z" transform="translate(174.786 97.627)" fill="#515997"/><path d="M5.05.013l149.968.4a5.059,5.059,0,0,1,5.063,5.017l.186,69.774a5,5,0,0,1-5.036,4.99l-149.968-.4A5.059,5.059,0,0,1,.2,74.778L.013,5A5,5,0,0,1,5.05.013Z" transform="translate(0.557 194.262)" fill="#515997"/><path d="M5.05.013l149.968.4a5.059,5.059,0,0,1,5.063,5.017l.186,69.774a5,5,0,0,1-5.036,4.99l-149.968-.4A5.059,5.059,0,0,1,.2,74.778L.013,5A5,5,0,0,1,5.05.013Z" transform="translate(175.065 194.758)" fill="#515997"/></g></g><g transform="translate(41.335 25.541)"><rect width="19.634" height="19.411" rx="9.706" fill="#fff"/><text transform="translate(31.001 14)" fill="#fff" font-size="13" font-family="Poppins-Medium, Poppins" font-weight="500"><tspan x="0" y="0">MCContent</tspan></text><g transform="translate(398.883 1.022)"><text transform="translate(169.474 13)" fill="#fff" font-size="12" font-family="Poppins-Regular, Poppins"><tspan x="0" y="0">MCContent</tspan></text><text transform="translate(84.737 13)" fill="#fff" font-size="12" font-family="Poppins-Regular, Poppins"><tspan x="0" y="0">MCContent</tspan></text><text transform="translate(0 13)" fill="#fff" font-size="12" font-family="Poppins-Regular, Poppins"><tspan x="0" y="0">MCContent</tspan></text></g></g></g></svg>