<svg xmlns="http://www.w3.org/2000/svg" width="537" height="375" viewBox="0 0 537 375"><g transform="translate(0 -0.065)"><rect width="537" height="375" rx="10" transform="translate(0 0.065)" fill="#ee5353"/><g transform="translate(237 140)"><path d="M31.733-39.6S63.466,5.257,63.466,22.782A31.733,31.733,0,0,1,0,22.782C0,5.257,31.733-39.6,31.733-39.6Z" transform="translate(0.147 40.546)" fill="#fff"/><rect width="16" height="15" transform="translate(0 48.065)" fill="#fff"/><rect width="16" height="16" transform="translate(0 16.065)" fill="#fff"/><rect width="16" height="16" transform="translate(16 32.065)" fill="#fff"/><rect width="16" height="16" transform="translate(16 0.065)" fill="#fff"/><rect width="16" height="16" transform="translate(0 32.065)" fill="#ee5353"/><rect width="16" height="16" transform="translate(0 0.065)" fill="#ee5353"/><rect width="16" height="16" transform="translate(16 16.065)" fill="#ee5353"/></g></g></svg>