<svg xmlns="http://www.w3.org/2000/svg" width="537" height="375" viewBox="0 0 537 375"><g transform="translate(0 -0.25)"><rect width="537" height="375" rx="10" transform="translate(0 0.25)" fill="#3a84e7"/><g transform="translate(221.339 140.328)"><path d="M0,0,94.733,94.733H0Z" fill="#fff"/><g fill="#fff"><path d="M 97.2333984375 97.2333984375 L 94.7333984375 97.2333984375 L -7.81249980263965e-07 97.2333984375 L -6.035529136657715 97.2333984375 L -1.767772197723389 92.96562957763672 L 92.96562957763672 -1.767772197723389 L 97.2333984375 -6.035529136657715 L 97.2333984375 -7.81249980263965e-07 L 97.2333984375 94.7333984375 L 97.2333984375 97.2333984375 Z" stroke="none"/><path d="M 94.7333984375 0 L 0 94.7333984375 L 94.7333984375 94.7333984375 L 94.7333984375 0 M 99.7333984375 -12.07106781005859 L 99.7333984375 0 L 99.7333984375 94.7333984375 L 99.7333984375 99.7333984375 L 94.7333984375 99.7333984375 L 0 99.7333984375 L -12.07106781005859 99.7333984375 L -3.535537719726563 91.19786834716797 L 91.19786834716797 -3.535537719726563 L 99.7333984375 -12.07106781005859 Z" stroke="none" fill="#3a84e7"/></g></g></g></svg>